Coordinates
version=1
nRows=16
nColumns=38
inDegrees=no

Units are S.I. units (second, meters, Newtons, ...)
If the header above contains a line with 'inDegrees', this indicates whether rotational values are in degrees (yes) or radians (no).

endheader
time	pelvis_tilt	pelvis_list	pelvis_rotation	pelvis_tx	pelvis_ty	pelvis_tz	hip_flexion_r	hip_adduction_r	hip_rotation_r	knee_angle_r	ankle_angle_r	subtalar_angle_r	mtp_angle_r	hip_flexion_l	hip_adduction_l	hip_rotation_l	knee_angle_l	ankle_angle_l	subtalar_angle_l	mtp_angle_l	lumbar_extension	lumbar_bending	lumbar_rotation	arm_flex_r	arm_add_r	arm_rot_r	elbow_flex_r	pro_sup_r	wrist_flex_r	wrist_dev_r	arm_flex_l	arm_add_l	arm_rot_l	elbow_flex_l	pro_sup_l	wrist_flex_l	wrist_dev_l
2.61	-1.06534	1.51598	-0.386322	0.679524	-0.425772	0.921898	-0.237104	0.0777583	-0.29064	0.316055	-0.120279	0	0	0.321771	-0.0344553	-0.039895	0.19238	-0.256739	0	0	-0.126962	0.0673271	-0.0676762	0.10087	-0.297915	0.199684	0.922683	1.5708	0	0	-0.238926	-0.248082	0.0147162	0.836546	1.5708	0	0
2.62	-1.07679	1.51843	-0.376713	0.680918	-0.435882	0.92081	-0.234523	0.0690054	-0.301936	0.347992	-0.111337	0	0	0.322762	-0.0295262	-0.0384298	0.223226	-0.246438	0	0	-0.121565	0.065238	-0.0681809	0.112326	-0.324783	0.270331	0.920864	1.46062	0	0	-0.237966	-0.248004	0.0209379	0.829207	1.5708	0	0
2.63	-1.07464	1.52221	-0.38107	0.682324	-0.446355	0.920009	-0.233351	0.0589549	-0.311028	0.37714	-0.108924	0	0	0.32142	-0.0225575	-0.0386981	0.248672	-0.236227	0	0	-0.122508	0.0608988	-0.0498612	0.0776776	-0.294663	0.174677	0.932598	1.5708	0	0	-0.224789	-0.250192	0.0407063	0.821119	1.5708	0	0
2.64	-1.02807	1.52577	-0.430139	0.683785	-0.457075	0.919568	-0.236233	0.049154	-0.315688	0.400547	-0.111182	0	0	0.316609	-0.0145623	-0.0416236	0.264029	-0.236193	0	0	-0.12149	0.0558499	-0.0450957	0.0702837	-0.292588	0.171068	0.931837	1.5708	0	0	-0.22158	-0.249767	0.0474096	0.814359	1.5708	0	0
2.65	-0.986271	1.53023	-0.474232	0.685283	-0.467936	0.91932	-0.23766	0.0387205	-0.318676	0.424442	-0.115039	0	0	0.313419	-0.00647014	-0.0469903	0.275039	-0.245453	0	0	-0.118959	0.0498947	-0.0409321	0.0627687	-0.290099	0.168621	0.928842	1.5708	0	0	-0.218399	-0.249453	0.0545569	0.806521	1.5708	0	0
2.66	-0.976292	1.5361	-0.486236	0.686837	-0.478901	0.919166	-0.235287	0.0272203	-0.321087	0.451896	-0.120601	0	0	0.312765	0.00114514	-0.0546575	0.285681	-0.260001	0	0	-0.113724	0.0431249	-0.0365878	0.054241	-0.287443	0.166282	0.924138	1.5708	0	0	-0.214539	-0.24869	0.062195	0.796826	1.5708	0	0
2.67	-1.03087	1.54279	-0.433197	0.688544	-0.489979	0.919017	-0.229337	0.0155087	-0.322288	0.481895	-0.127878	0	0	0.314312	0.00782047	-0.0627306	0.297784	-0.272388	0	0	-0.105649	0.0365652	-0.0329312	0.0447418	-0.284872	0.164699	0.918363	1.5708	0	0	-0.210818	-0.247263	0.0698597	0.785853	1.5708	0	0
2.68	-1.20632	1.54894	-0.258454	0.690461	-0.501162	0.9188	-0.220157	0.00435842	-0.322524	0.514751	-0.136776	0	0	0.318187	0.0128908	-0.0693371	0.313203	-0.279466	0	0	-0.0949234	0.0313816	-0.0308178	0.0346746	-0.282854	0.164653	0.912046	1.5708	0	0	-0.207689	-0.246225	0.0794061	0.774578	1.5708	0	0
2.69	-1.51072	1.55274	0.0451169	0.692453	-0.512356	0.91858	-0.208773	-0.00617771	-0.320278	0.550863	-0.147225	0	0	0.323184	0.0156227	-0.0745426	0.332731	-0.282096	0	0	-0.0839048	0.0278502	-0.0296182	0.0249742	-0.28234	0.16757	0.906204	1.5708	0	0	-0.205402	-0.244671	0.0883891	0.76421	1.5708	0	0
2.7	-1.87651	1.55364	0.409948	0.694488	-0.523514	0.918514	-0.195872	-0.0162988	-0.315114	0.589511	-0.160604	0	0	0.328194	0.0168008	-0.0769722	0.354252	-0.283771	0	0	-0.073451	0.0254593	-0.0294783	0.0163397	-0.28354	0.17512	0.900167	1.5708	0	0	-0.203802	-0.241817	0.0950738	0.75417	1.5708	0	0
2.71	-2.16819	1.5533	0.700993	0.696601	-0.534607	0.918853	-0.182952	-0.0268822	-0.307751	0.629855	-0.177861	0	0	0.330126	0.0184455	-0.0762816	0.372844	-0.286716	0	0	-0.0644796	0.023074	-0.0301999	0.00930513	-0.28688	0.189237	0.892635	1.55846	0	0	-0.20164	-0.238933	0.102248	0.743846	1.5708	0	0
2.72	-2.23547	1.55642	0.768147	0.698735	-0.54554	0.919985	-0.175712	-0.0381547	-0.298311	0.668732	-0.195917	0	0	0.322953	0.0214658	-0.0738334	0.385024	-0.289685	0	0	-0.064973	0.01973	-0.0301812	-0.00132448	-0.281081	0.179482	0.887512	1.5708	0	0	-0.198233	-0.23563	0.106109	0.73721	1.5708	0	0
2.73	-2.74154	1.53597	1.26543	0.700021	-0.555492	0.919751	-0.154696	-0.0386758	-0.129957	0.682766	-0.192155	0	0	0.344194	0.0198231	-0.0676316	0.401148	-0.28496	0	0	-0.0335408	0.019739	-0.0266694	0.00317009	-0.294916	0.231757	0.865585	1.52395	0	0	-0.193543	-0.231581	0.119062	0.715334	1.5708	0	0
2.74	-2.84896	1.53301	1.37303	0.702055	-0.566166	0.920775	-0.134032	-0.0496126	-0.122612	0.730365	-0.225766	0	0	0.341018	0.023815	-0.0650004	0.411823	-0.276099	0	0	-0.0265918	0.016845	-0.0172183	-0.0186825	-0.283629	0.196185	0.861623	1.5708	0	0	-0.17998	-0.235826	0.154781	0.701489	1.5708	0	0
2.75	-2.92938	1.53329	1.45385	0.704039	-0.576568	0.922046	-0.114845	-0.0604363	-0.116305	0.777813	-0.259372	0	0	0.333113	0.027828	-0.0665145	0.420891	-0.268217	0	0	-0.0236599	0.013481	-0.0205989	-0.0225738	-0.284558	0.209418	0.851371	1.5708	0	0	-0.177112	-0.236879	0.169158	0.696433	1.5708	0	0
2.76	-3.01755	1.53395	1.54188	0.705927	-0.586785	0.923339	-0.0935659	-0.0714404	-0.109543	0.825618	-0.297646	0	0	0.323073	0.0323606	-0.0699441	0.427494	-0.260306	0	0	-0.0221934	0.0101907	-0.024595	-0.0258924	-0.286052	0.223896	0.842789	1.5708	0	0	-0.174515	-0.236957	0.17865	0.694424	1.5708	0	0
